<svg id="visual" viewBox="0 0 900 600" width="900" height="600" xmlns="http://www.w3.org/2000/svg" xmlns:xlink="http://www.w3.org/1999/xlink" version="1.1"><path d="M0 13L25 17C50 21 100 29 150 30C200 31 250 25 300 21C350 17 400 15 450 18C500 21 550 29 600 30C650 31 700 25 750 24C800 23 850 27 875 29L900 31L900 0L875 0C850 0 800 0 750 0C700 0 650 0 600 0C550 0 500 0 450 0C400 0 350 0 300 0C250 0 200 0 150 0C100 0 50 0 25 0L0 0Z" fill="#004cbb"></path><path d="M0 43L25 45C50 47 100 51 150 49C200 47 250 39 300 34C350 29 400 27 450 30C500 33 550 41 600 44C650 47 700 45 750 45C800 45 850 47 875 48L900 49L900 29L875 27C850 25 800 21 750 22C700 23 650 29 600 28C550 27 500 19 450 16C400 13 350 15 300 19C250 23 200 29 150 28C100 27 50 19 25 15L0 11Z" fill="#0058d9"></path><path d="M0 97L25 94C50 91 100 85 150 84C200 83 250 87 300 89C350 91 400 91 450 88C500 85 550 79 600 79C650 79 700 85 750 87C800 89 850 87 875 86L900 85L900 47L875 46C850 45 800 43 750 43C700 43 650 45 600 42C550 39 500 31 450 28C400 25 350 27 300 32C250 37 200 45 150 47C100 49 50 45 25 43L0 41Z" fill="#0064f9"></path><path d="M0 253L25 248C50 243 100 233 150 232C200 231 250 239 300 228C350 217 400 187 450 188C500 189 550 221 600 238C650 255 700 257 750 249C800 241 850 223 875 214L900 205L900 83L875 84C850 85 800 87 750 85C700 83 650 77 600 77C550 77 500 83 450 86C400 89 350 89 300 87C250 85 200 81 150 82C100 83 50 89 25 92L0 95Z" fill="#3079ff"></path><path d="M0 289L25 281C50 273 100 257 150 255C200 253 250 265 300 255C350 245 400 213 450 215C500 217 550 253 600 273C650 293 700 297 750 286C800 275 850 249 875 236L900 223L900 203L875 212C850 221 800 239 750 247C700 255 650 253 600 236C550 219 500 187 450 186C400 185 350 215 300 226C250 237 200 229 150 230C100 231 50 241 25 246L0 251Z" fill="#548fff"></path><path d="M0 319L25 311C50 303 100 287 150 283C200 279 250 287 300 275C350 263 400 231 450 233C500 235 550 271 600 293C650 315 700 323 750 315C800 307 850 283 875 271L900 259L900 221L875 234C850 247 800 273 750 284C700 295 650 291 600 271C550 251 500 215 450 213C400 211 350 243 300 253C250 263 200 251 150 253C100 255 50 271 25 279L0 287Z" fill="#6198ff"></path><path d="M0 349L25 345C50 341 100 333 150 331C200 329 250 333 300 322C350 311 400 285 450 291C500 297 550 335 600 351C650 367 700 361 750 347C800 333 850 311 875 300L900 289L900 257L875 269C850 281 800 305 750 313C700 321 650 313 600 291C550 269 500 233 450 231C400 229 350 261 300 273C250 285 200 277 150 281C100 285 50 301 25 309L0 317Z" fill="#6198ff"></path><path d="M0 397L25 397C50 397 100 397 150 401C200 405 250 413 300 404C350 395 400 369 450 369C500 369 550 395 600 402C650 409 700 397 750 390C800 383 850 381 875 380L900 379L900 287L875 298C850 309 800 331 750 345C700 359 650 365 600 349C550 333 500 295 450 289C400 283 350 309 300 320C250 331 200 327 150 329C100 331 50 339 25 343L0 347Z" fill="#548fff"></path><path d="M0 427L25 426C50 425 100 423 150 424C200 425 250 429 300 420C350 411 400 389 450 389C500 389 550 411 600 419C650 427 700 421 750 414C800 407 850 399 875 395L900 391L900 377L875 378C850 379 800 381 750 388C700 395 650 407 600 400C550 393 500 367 450 367C400 367 350 393 300 402C250 411 200 403 150 399C100 395 50 395 25 395L0 395Z" fill="#3079ff"></path><path d="M0 505L25 504C50 503 100 501 150 495C200 489 250 479 300 467C350 455 400 441 450 440C500 439 550 451 600 459C650 467 700 471 750 467C800 463 850 451 875 445L900 439L900 389L875 393C850 397 800 405 750 412C700 419 650 425 600 417C550 409 500 387 450 387C400 387 350 409 300 418C250 427 200 423 150 422C100 421 50 423 25 424L0 425Z" fill="#0064f9"></path><path d="M0 547L25 546C50 545 100 543 150 534C200 525 250 509 300 493C350 477 400 461 450 461C500 461 550 477 600 490C650 503 700 513 750 513C800 513 850 503 875 498L900 493L900 437L875 443C850 449 800 461 750 465C700 469 650 465 600 457C550 449 500 437 450 438C400 439 350 453 300 465C250 477 200 487 150 493C100 499 50 501 25 502L0 503Z" fill="#0058d9"></path><path d="M0 601L25 601C50 601 100 601 150 601C200 601 250 601 300 601C350 601 400 601 450 601C500 601 550 601 600 601C650 601 700 601 750 601C800 601 850 601 875 601L900 601L900 491L875 496C850 501 800 511 750 511C700 511 650 501 600 488C550 475 500 459 450 459C400 459 350 475 300 491C250 507 200 523 150 532C100 541 50 543 25 544L0 545Z" fill="#004cbb"></path></svg>